<?xml version="1.0" encoding="UTF-8"?>
<svg xmlns="http://www.w3.org/2000/svg" xmlns:xlink="http://www.w3.org/1999/xlink" width="854" height="480" viewBox="0 0 854 480">
<defs>
<g>
<g id="glyph-0-0">
<path d="M 1.816406 -1.648438 C 1.816406 -1.6875 1.824219 -1.71875 1.839844 -1.734375 C 1.855469 -1.753906 1.875 -1.761719 1.898438 -1.761719 C 1.925781 -1.761719 1.945312 -1.753906 1.964844 -1.734375 C 1.980469 -1.71875 1.988281 -1.6875 1.988281 -1.644531 L 1.988281 -1.351562 C 1.988281 -1.3125 1.980469 -1.28125 1.964844 -1.265625 C 1.945312 -1.246094 1.925781 -1.238281 1.898438 -1.238281 C 1.878906 -1.238281 1.859375 -1.246094 1.84375 -1.261719 C 1.828125 -1.277344 1.816406 -1.300781 1.816406 -1.335938 C 1.804688 -1.414062 1.765625 -1.484375 1.6875 -1.535156 C 1.578125 -1.613281 1.429688 -1.648438 1.246094 -1.648438 C 1.054688 -1.648438 0.90625 -1.609375 0.800781 -1.535156 C 0.722656 -1.476562 0.679688 -1.410156 0.679688 -1.339844 C 0.679688 -1.257812 0.730469 -1.191406 0.824219 -1.136719 C 0.890625 -1.097656 1.011719 -1.066406 1.195312 -1.046875 C 1.429688 -1.023438 1.597656 -0.992188 1.6875 -0.960938 C 1.820312 -0.914062 1.917969 -0.847656 1.984375 -0.761719 C 2.046875 -0.679688 2.078125 -0.589844 2.078125 -0.492188 C 2.078125 -0.34375 2.007812 -0.214844 1.871094 -0.101562 C 1.730469 0.0117188 1.523438 0.0664062 1.253906 0.0664062 C 0.984375 0.0664062 0.765625 0 0.59375 -0.136719 C 0.59375 -0.09375 0.589844 -0.0625 0.582031 -0.046875 C 0.578125 -0.0351562 0.570312 -0.0234375 0.554688 -0.015625 C 0.539062 -0.00390625 0.523438 0 0.507812 0 C 0.480469 0 0.460938 -0.0078125 0.445312 -0.0273438 C 0.429688 -0.0429688 0.421875 -0.0742188 0.421875 -0.113281 L 0.421875 -0.464844 C 0.421875 -0.507812 0.429688 -0.535156 0.445312 -0.554688 C 0.460938 -0.570312 0.480469 -0.578125 0.507812 -0.578125 C 0.53125 -0.578125 0.550781 -0.570312 0.570312 -0.554688 C 0.585938 -0.539062 0.59375 -0.515625 0.59375 -0.484375 C 0.59375 -0.425781 0.609375 -0.371094 0.640625 -0.328125 C 0.6875 -0.265625 0.765625 -0.210938 0.867188 -0.167969 C 0.972656 -0.125 1.097656 -0.105469 1.25 -0.105469 C 1.472656 -0.105469 1.636719 -0.144531 1.746094 -0.226562 C 1.855469 -0.3125 1.910156 -0.398438 1.910156 -0.492188 C 1.910156 -0.597656 1.851562 -0.679688 1.742188 -0.746094 C 1.632812 -0.808594 1.46875 -0.851562 1.257812 -0.871094 C 1.046875 -0.894531 0.894531 -0.921875 0.800781 -0.957031 C 0.710938 -0.992188 0.636719 -1.046875 0.585938 -1.117188 C 0.535156 -1.1875 0.507812 -1.261719 0.507812 -1.34375 C 0.507812 -1.492188 0.582031 -1.609375 0.722656 -1.695312 C 0.867188 -1.78125 1.039062 -1.824219 1.238281 -1.824219 C 1.476562 -1.824219 1.667969 -1.765625 1.816406 -1.648438 Z "/>
</g>
<g id="glyph-0-1">
<path d="M 2.175781 -0.839844 L 0.433594 -0.839844 C 0.464844 -0.621094 0.554688 -0.441406 0.710938 -0.304688 C 0.867188 -0.171875 1.058594 -0.105469 1.289062 -0.105469 C 1.414062 -0.105469 1.550781 -0.125 1.6875 -0.167969 C 1.828125 -0.207031 1.941406 -0.265625 2.03125 -0.332031 C 2.054688 -0.355469 2.078125 -0.363281 2.097656 -0.363281 C 2.121094 -0.363281 2.136719 -0.355469 2.15625 -0.339844 C 2.171875 -0.320312 2.179688 -0.300781 2.179688 -0.277344 C 2.179688 -0.253906 2.167969 -0.234375 2.144531 -0.210938 C 2.082031 -0.144531 1.964844 -0.0820312 1.800781 -0.0195312 C 1.632812 0.0390625 1.460938 0.0664062 1.289062 0.0664062 C 0.996094 0.0664062 0.75 -0.0273438 0.554688 -0.222656 C 0.359375 -0.414062 0.261719 -0.644531 0.261719 -0.917969 C 0.261719 -1.164062 0.351562 -1.378906 0.535156 -1.554688 C 0.71875 -1.734375 0.949219 -1.824219 1.21875 -1.824219 C 1.5 -1.824219 1.726562 -1.730469 1.910156 -1.550781 C 2.089844 -1.367188 2.175781 -1.128906 2.175781 -0.839844 M 2 -1.011719 C 1.96875 -1.203125 1.878906 -1.355469 1.734375 -1.472656 C 1.589844 -1.589844 1.417969 -1.648438 1.21875 -1.648438 C 1.019531 -1.648438 0.847656 -1.589844 0.703125 -1.476562 C 0.558594 -1.359375 0.46875 -1.203125 0.433594 -1.011719 Z "/>
</g>
<g id="glyph-0-2">
<path d="M 1.742188 0 L 1.742188 -0.246094 C 1.492188 -0.0390625 1.226562 0.0664062 0.945312 0.0664062 C 0.742188 0.0664062 0.582031 0.015625 0.464844 -0.0898438 C 0.351562 -0.191406 0.292969 -0.320312 0.292969 -0.46875 C 0.292969 -0.636719 0.367188 -0.78125 0.519531 -0.902344 C 0.671875 -1.027344 0.894531 -1.089844 1.1875 -1.089844 C 1.265625 -1.089844 1.351562 -1.082031 1.441406 -1.074219 C 1.535156 -1.0625 1.632812 -1.046875 1.742188 -1.023438 L 1.742188 -1.300781 C 1.742188 -1.394531 1.699219 -1.476562 1.609375 -1.546875 C 1.523438 -1.617188 1.394531 -1.648438 1.21875 -1.648438 C 1.085938 -1.648438 0.902344 -1.609375 0.660156 -1.535156 C 0.617188 -1.519531 0.589844 -1.511719 0.578125 -1.511719 C 0.554688 -1.511719 0.539062 -1.523438 0.523438 -1.539062 C 0.507812 -1.554688 0.5 -1.574219 0.5 -1.597656 C 0.5 -1.621094 0.503906 -1.640625 0.519531 -1.652344 C 0.539062 -1.675781 0.613281 -1.703125 0.75 -1.738281 C 0.960938 -1.792969 1.121094 -1.824219 1.230469 -1.824219 C 1.445312 -1.824219 1.613281 -1.769531 1.734375 -1.664062 C 1.855469 -1.558594 1.914062 -1.4375 1.914062 -1.300781 L 1.914062 -0.171875 L 2.140625 -0.171875 C 2.183594 -0.171875 2.214844 -0.164062 2.230469 -0.148438 C 2.25 -0.132812 2.257812 -0.109375 2.257812 -0.0859375 C 2.257812 -0.0625 2.25 -0.0390625 2.230469 -0.0234375 C 2.214844 -0.0078125 2.183594 0 2.140625 0 L 1.742188 0 M 1.742188 -0.851562 C 1.660156 -0.875 1.578125 -0.890625 1.488281 -0.902344 C 1.398438 -0.914062 1.304688 -0.917969 1.203125 -0.917969 C 0.957031 -0.917969 0.761719 -0.863281 0.621094 -0.757812 C 0.515625 -0.675781 0.464844 -0.582031 0.464844 -0.46875 C 0.464844 -0.367188 0.503906 -0.28125 0.585938 -0.210938 C 0.664062 -0.140625 0.785156 -0.105469 0.9375 -0.105469 C 1.085938 -0.105469 1.222656 -0.132812 1.351562 -0.191406 C 1.476562 -0.25 1.605469 -0.34375 1.742188 -0.472656 Z "/>
</g>
<g id="glyph-0-3">
<path d="M 1.046875 -1.761719 L 1.046875 -1.332031 C 1.269531 -1.53125 1.433594 -1.660156 1.546875 -1.71875 C 1.65625 -1.777344 1.757812 -1.804688 1.851562 -1.804688 C 1.953125 -1.804688 2.046875 -1.769531 2.136719 -1.703125 C 2.222656 -1.632812 2.265625 -1.582031 2.265625 -1.546875 C 2.265625 -1.519531 2.257812 -1.5 2.242188 -1.480469 C 2.222656 -1.464844 2.203125 -1.457031 2.175781 -1.457031 C 2.164062 -1.457031 2.152344 -1.460938 2.140625 -1.464844 C 2.132812 -1.46875 2.113281 -1.484375 2.089844 -1.507812 C 2.042969 -1.558594 2 -1.589844 1.964844 -1.605469 C 1.929688 -1.625 1.894531 -1.632812 1.863281 -1.632812 C 1.785156 -1.632812 1.695312 -1.605469 1.59375 -1.542969 C 1.488281 -1.484375 1.304688 -1.339844 1.046875 -1.105469 L 1.046875 -0.171875 L 1.800781 -0.171875 C 1.84375 -0.171875 1.875 -0.164062 1.890625 -0.148438 C 1.910156 -0.132812 1.917969 -0.109375 1.917969 -0.0859375 C 1.917969 -0.0625 1.910156 -0.0390625 1.890625 -0.0234375 C 1.875 -0.0078125 1.84375 0 1.800781 0 L 0.460938 0 C 0.421875 0 0.390625 -0.0078125 0.375 -0.0234375 C 0.355469 -0.0390625 0.347656 -0.0585938 0.347656 -0.0820312 C 0.347656 -0.105469 0.355469 -0.125 0.375 -0.140625 C 0.390625 -0.15625 0.417969 -0.164062 0.460938 -0.164062 L 0.875 -0.164062 L 0.875 -1.589844 L 0.558594 -1.589844 C 0.519531 -1.589844 0.488281 -1.597656 0.472656 -1.613281 C 0.453125 -1.628906 0.445312 -1.652344 0.445312 -1.675781 C 0.445312 -1.699219 0.453125 -1.722656 0.472656 -1.738281 C 0.488281 -1.753906 0.515625 -1.761719 0.558594 -1.761719 Z "/>
</g>
<g id="glyph-0-4">
<path d="M 1.964844 -1.589844 L 1.964844 -1.644531 C 1.964844 -1.6875 1.972656 -1.71875 1.988281 -1.734375 C 2.003906 -1.753906 2.023438 -1.761719 2.046875 -1.761719 C 2.074219 -1.761719 2.09375 -1.753906 2.113281 -1.734375 C 2.128906 -1.71875 2.136719 -1.6875 2.136719 -1.644531 L 2.136719 -1.257812 C 2.136719 -1.21875 2.125 -1.1875 2.109375 -1.167969 C 2.09375 -1.152344 2.074219 -1.144531 2.046875 -1.144531 C 2.027344 -1.144531 2.007812 -1.152344 1.992188 -1.167969 C 1.976562 -1.183594 1.964844 -1.207031 1.964844 -1.246094 C 1.957031 -1.339844 1.890625 -1.433594 1.773438 -1.519531 C 1.65625 -1.605469 1.496094 -1.648438 1.292969 -1.648438 C 1.039062 -1.648438 0.847656 -1.570312 0.714844 -1.410156 C 0.585938 -1.253906 0.519531 -1.070312 0.519531 -0.867188 C 0.519531 -0.644531 0.589844 -0.464844 0.738281 -0.320312 C 0.882812 -0.175781 1.070312 -0.105469 1.300781 -0.105469 C 1.433594 -0.105469 1.566406 -0.128906 1.707031 -0.175781 C 1.84375 -0.226562 1.96875 -0.304688 2.078125 -0.414062 C 2.109375 -0.441406 2.132812 -0.453125 2.15625 -0.453125 C 2.175781 -0.453125 2.195312 -0.445312 2.210938 -0.429688 C 2.226562 -0.414062 2.234375 -0.394531 2.234375 -0.371094 C 2.234375 -0.3125 2.167969 -0.238281 2.03125 -0.152344 C 1.808594 -0.00390625 1.5625 0.0664062 1.292969 0.0664062 C 1.015625 0.0664062 0.789062 -0.0195312 0.613281 -0.195312 C 0.4375 -0.371094 0.347656 -0.59375 0.347656 -0.863281 C 0.347656 -1.140625 0.4375 -1.367188 0.621094 -1.550781 C 0.800781 -1.730469 1.027344 -1.824219 1.304688 -1.824219 C 1.566406 -1.824219 1.785156 -1.746094 1.964844 -1.589844 Z "/>
</g>
<g id="glyph-0-5">
<path d="M 0.6875 -2.554688 L 0.6875 -1.5 C 0.796875 -1.621094 0.898438 -1.703125 1 -1.75 C 1.101562 -1.800781 1.210938 -1.824219 1.335938 -1.824219 C 1.46875 -1.824219 1.582031 -1.800781 1.671875 -1.753906 C 1.765625 -1.707031 1.84375 -1.632812 1.90625 -1.535156 C 1.96875 -1.441406 2 -1.339844 2 -1.230469 L 2 -0.171875 L 2.191406 -0.171875 C 2.234375 -0.171875 2.261719 -0.164062 2.28125 -0.148438 C 2.296875 -0.132812 2.304688 -0.109375 2.304688 -0.0859375 C 2.304688 -0.0625 2.296875 -0.0390625 2.28125 -0.0234375 C 2.261719 -0.0078125 2.234375 0 2.191406 0 L 1.636719 0 C 1.59375 0 1.5625 -0.0078125 1.546875 -0.0234375 C 1.527344 -0.0390625 1.519531 -0.0625 1.519531 -0.0859375 C 1.519531 -0.109375 1.527344 -0.132812 1.546875 -0.148438 C 1.5625 -0.164062 1.59375 -0.171875 1.636719 -0.171875 L 1.828125 -0.171875 L 1.828125 -1.21875 C 1.828125 -1.34375 1.78125 -1.445312 1.695312 -1.527344 C 1.605469 -1.609375 1.480469 -1.652344 1.324219 -1.652344 C 1.199219 -1.652344 1.089844 -1.621094 1.003906 -1.558594 C 0.9375 -1.515625 0.835938 -1.414062 0.6875 -1.253906 L 0.6875 -0.171875 L 0.882812 -0.171875 C 0.921875 -0.171875 0.949219 -0.164062 0.96875 -0.148438 C 0.984375 -0.132812 0.996094 -0.109375 0.996094 -0.0859375 C 0.996094 -0.0625 0.984375 -0.0390625 0.96875 -0.0234375 C 0.949219 -0.0078125 0.921875 0 0.882812 0 L 0.324219 0 C 0.28125 0 0.253906 -0.0078125 0.234375 -0.0234375 C 0.21875 -0.0390625 0.210938 -0.0625 0.210938 -0.0859375 C 0.210938 -0.109375 0.21875 -0.132812 0.234375 -0.148438 C 0.253906 -0.164062 0.28125 -0.171875 0.324219 -0.171875 L 0.515625 -0.171875 L 0.515625 -2.378906 L 0.285156 -2.378906 C 0.246094 -2.378906 0.21875 -2.386719 0.199219 -2.40625 C 0.183594 -2.421875 0.171875 -2.441406 0.171875 -2.46875 C 0.171875 -2.492188 0.183594 -2.511719 0.199219 -2.527344 C 0.21875 -2.546875 0.246094 -2.554688 0.285156 -2.554688 Z "/>
</g>
<g id="glyph-0-6">
<path d="M 1.214844 -0.492188 L 1.289062 -0.492188 C 1.363281 -0.492188 1.429688 -0.464844 1.484375 -0.410156 C 1.539062 -0.355469 1.566406 -0.292969 1.566406 -0.214844 C 1.566406 -0.136719 1.535156 -0.0703125 1.480469 -0.0195312 C 1.425781 0.0351562 1.363281 0.0625 1.289062 0.0625 L 1.214844 0.0625 C 1.136719 0.0625 1.074219 0.0351562 1.019531 -0.0195312 C 0.964844 -0.0742188 0.9375 -0.136719 0.9375 -0.214844 C 0.9375 -0.292969 0.964844 -0.359375 1.019531 -0.410156 C 1.074219 -0.464844 1.140625 -0.492188 1.214844 -0.492188 Z "/>
</g>
<g id="glyph-0-7">
<path d="M 0.605469 -1.761719 L 0.605469 -1.449219 C 0.707031 -1.574219 0.816406 -1.667969 0.933594 -1.730469 C 1.050781 -1.792969 1.1875 -1.824219 1.347656 -1.824219 C 1.515625 -1.824219 1.671875 -1.785156 1.8125 -1.703125 C 1.957031 -1.625 2.066406 -1.515625 2.144531 -1.375 C 2.222656 -1.234375 2.261719 -1.089844 2.261719 -0.933594 C 2.261719 -0.6875 2.171875 -0.476562 1.996094 -0.304688 C 1.820312 -0.128906 1.605469 -0.0429688 1.347656 -0.0429688 C 1.042969 -0.0429688 0.796875 -0.167969 0.605469 -0.414062 L 0.605469 0.613281 L 1.019531 0.613281 C 1.0625 0.613281 1.089844 0.621094 1.109375 0.636719 C 1.125 0.652344 1.136719 0.675781 1.136719 0.699219 C 1.136719 0.722656 1.125 0.746094 1.109375 0.761719 C 1.089844 0.777344 1.0625 0.785156 1.019531 0.785156 L 0.207031 0.785156 C 0.164062 0.785156 0.136719 0.777344 0.117188 0.761719 C 0.101562 0.746094 0.0898438 0.726562 0.0898438 0.699219 C 0.0898438 0.675781 0.101562 0.652344 0.117188 0.636719 C 0.136719 0.621094 0.164062 0.613281 0.207031 0.613281 L 0.433594 0.613281 L 0.433594 -1.589844 L 0.207031 -1.589844 C 0.164062 -1.589844 0.136719 -1.597656 0.117188 -1.613281 C 0.101562 -1.628906 0.0898438 -1.652344 0.0898438 -1.675781 C 0.0898438 -1.699219 0.101562 -1.722656 0.117188 -1.738281 C 0.136719 -1.753906 0.164062 -1.761719 0.207031 -1.761719 L 0.605469 -1.761719 M 2.085938 -0.933594 C 2.085938 -1.128906 2.015625 -1.300781 1.871094 -1.4375 C 1.730469 -1.578125 1.554688 -1.648438 1.347656 -1.648438 C 1.140625 -1.648438 0.964844 -1.578125 0.820312 -1.4375 C 0.679688 -1.296875 0.605469 -1.128906 0.605469 -0.933594 C 0.605469 -0.738281 0.679688 -0.566406 0.820312 -0.425781 C 0.964844 -0.285156 1.140625 -0.214844 1.347656 -0.214844 C 1.554688 -0.214844 1.726562 -0.285156 1.871094 -0.425781 C 2.015625 -0.566406 2.085938 -0.734375 2.085938 -0.933594 Z "/>
</g>
<g id="glyph-0-8">
<path d="M 1.261719 0 L 0.46875 -1.589844 L 0.417969 -1.589844 C 0.375 -1.589844 0.347656 -1.597656 0.328125 -1.613281 C 0.3125 -1.628906 0.304688 -1.648438 0.304688 -1.675781 C 0.304688 -1.691406 0.308594 -1.707031 0.316406 -1.722656 C 0.324219 -1.738281 0.335938 -1.746094 0.351562 -1.753906 C 0.363281 -1.757812 0.386719 -1.761719 0.417969 -1.761719 L 0.886719 -1.761719 C 0.925781 -1.761719 0.953125 -1.753906 0.972656 -1.738281 C 0.988281 -1.722656 1 -1.699219 1 -1.675781 C 1 -1.648438 0.988281 -1.628906 0.972656 -1.613281 C 0.953125 -1.597656 0.925781 -1.589844 0.886719 -1.589844 L 0.65625 -1.589844 L 1.351562 -0.1875 L 2.039062 -1.589844 L 1.8125 -1.589844 C 1.769531 -1.589844 1.742188 -1.597656 1.722656 -1.613281 C 1.707031 -1.628906 1.695312 -1.652344 1.695312 -1.675781 C 1.695312 -1.699219 1.707031 -1.722656 1.722656 -1.738281 C 1.742188 -1.753906 1.769531 -1.761719 1.8125 -1.761719 L 2.277344 -1.761719 C 2.320312 -1.761719 2.347656 -1.753906 2.367188 -1.738281 C 2.382812 -1.722656 2.390625 -1.699219 2.390625 -1.675781 C 2.390625 -1.65625 2.386719 -1.640625 2.375 -1.625 C 2.367188 -1.609375 2.351562 -1.601562 2.339844 -1.597656 C 2.324219 -1.589844 2.289062 -1.589844 2.226562 -1.589844 L 1.144531 0.613281 L 1.410156 0.613281 C 1.449219 0.613281 1.480469 0.621094 1.496094 0.636719 C 1.515625 0.652344 1.523438 0.675781 1.523438 0.699219 C 1.523438 0.722656 1.515625 0.746094 1.496094 0.761719 C 1.480469 0.777344 1.449219 0.785156 1.410156 0.785156 L 0.425781 0.785156 C 0.382812 0.785156 0.355469 0.777344 0.335938 0.761719 C 0.320312 0.746094 0.3125 0.726562 0.3125 0.699219 C 0.3125 0.675781 0.320312 0.652344 0.335938 0.636719 C 0.355469 0.621094 0.382812 0.613281 0.425781 0.613281 L 0.960938 0.613281 Z "/>
</g>
</g>
</defs>
<g fill="rgb(79.607843%, 83.529412%, 88.235294%)" fill-opacity="1">
<use xlink:href="#glyph-0-0" x="30" y="23.46875"/>
<use xlink:href="#glyph-0-1" x="33" y="23.46875"/>
<use xlink:href="#glyph-0-2" x="36" y="23.46875"/>
<use xlink:href="#glyph-0-3" x="39" y="23.46875"/>
<use xlink:href="#glyph-0-4" x="42" y="23.46875"/>
<use xlink:href="#glyph-0-5" x="45" y="23.46875"/>
<use xlink:href="#glyph-0-6" x="48" y="23.46875"/>
<use xlink:href="#glyph-0-7" x="51" y="23.46875"/>
<use xlink:href="#glyph-0-8" x="54" y="23.46875"/>
</g>
</svg>
