<?xml version="1.0" encoding="UTF-8"?>
<svg xmlns="http://www.w3.org/2000/svg" xmlns:xlink="http://www.w3.org/1999/xlink" width="1920" height="1080" viewBox="0 0 1920 1080">
<defs>
<g>
<g id="glyph-0-0">
<path d="M -0.0390625 0 L 3.234375 -9.695312 L 5.890625 -9.695312 L 9.167969 0 L 6.660156 0 L 6.054688 -1.980469 L 3.007812 -1.980469 L 2.402344 0 L -0.0390625 0 M 5.519531 -3.738281 L 4.53125 -6.933594 L 3.542969 -3.738281 Z "/>
</g>
<g id="glyph-0-1">
<path d="M 9.832031 -4.84375 C 9.832031 -3.277344 9.410156 -2.042969 8.574219 -1.144531 C 7.738281 -0.246094 6.589844 0.203125 5.128906 0.203125 C 3.667969 0.203125 2.519531 -0.253906 1.6875 -1.164062 C 0.851562 -2.070312 0.4375 -3.296875 0.4375 -4.84375 C 0.4375 -6.402344 0.851562 -7.632812 1.6875 -8.539062 C 2.519531 -9.445312 3.667969 -9.894531 5.128906 -9.894531 C 6.589844 -9.894531 7.738281 -9.445312 8.574219 -8.546875 C 9.410156 -7.644531 9.832031 -6.410156 9.832031 -4.84375 M 7.316406 -4.851562 C 7.316406 -5.425781 7.257812 -5.917969 7.136719 -6.324219 C 7.019531 -6.730469 6.859375 -7.0625 6.660156 -7.324219 C 6.453125 -7.589844 6.214844 -7.777344 5.953125 -7.894531 C 5.691406 -8.007812 5.417969 -8.066406 5.136719 -8.066406 C 4.835938 -8.066406 4.566406 -8.011719 4.324219 -7.90625 C 4.078125 -7.800781 3.84375 -7.609375 3.621094 -7.335938 C 3.421875 -7.085938 3.257812 -6.75 3.132812 -6.335938 C 3.011719 -5.917969 2.949219 -5.421875 2.949219 -4.84375 C 2.949219 -4.25 3.007812 -3.753906 3.125 -3.363281 C 3.242188 -2.96875 3.402344 -2.640625 3.605469 -2.375 C 3.816406 -2.105469 4.050781 -1.914062 4.316406 -1.800781 C 4.582031 -1.683594 4.855469 -1.628906 5.136719 -1.628906 C 5.421875 -1.628906 5.699219 -1.6875 5.96875 -1.8125 C 6.238281 -1.9375 6.472656 -2.128906 6.667969 -2.390625 C 6.875 -2.671875 7.035156 -3 7.148438 -3.375 C 7.261719 -3.75 7.316406 -4.242188 7.316406 -4.851562 Z "/>
</g>
<g id="glyph-0-2">
<path d="M 3.996094 0.175781 C 3.253906 0.175781 2.601562 0.105469 2.039062 -0.0390625 C 1.480469 -0.183594 0.957031 -0.359375 0.476562 -0.574219 L 0.476562 -2.878906 L 0.695312 -2.878906 C 1.183594 -2.464844 1.71875 -2.148438 2.304688 -1.925781 C 2.890625 -1.707031 3.460938 -1.59375 4.011719 -1.59375 C 4.148438 -1.59375 4.332031 -1.609375 4.5625 -1.640625 C 4.789062 -1.671875 4.972656 -1.71875 5.109375 -1.785156 C 5.28125 -1.859375 5.421875 -1.960938 5.539062 -2.09375 C 5.65625 -2.226562 5.714844 -2.398438 5.714844 -2.617188 C 5.714844 -2.859375 5.621094 -3.058594 5.429688 -3.210938 C 5.238281 -3.363281 5.011719 -3.472656 4.746094 -3.542969 C 4.417969 -3.628906 4.0625 -3.710938 3.6875 -3.789062 C 3.3125 -3.867188 2.960938 -3.960938 2.636719 -4.074219 C 1.886719 -4.339844 1.347656 -4.695312 1.023438 -5.144531 C 0.695312 -5.589844 0.535156 -6.148438 0.535156 -6.824219 C 0.535156 -7.730469 0.917969 -8.464844 1.6875 -9.027344 C 2.453125 -9.589844 3.414062 -9.871094 4.5625 -9.871094 C 5.140625 -9.871094 5.714844 -9.8125 6.285156 -9.695312 C 6.855469 -9.578125 7.367188 -9.417969 7.820312 -9.21875 L 7.820312 -7.003906 L 7.605469 -7.003906 C 7.242188 -7.3125 6.804688 -7.574219 6.285156 -7.785156 C 5.765625 -8 5.234375 -8.105469 4.6875 -8.105469 C 4.476562 -8.105469 4.285156 -8.089844 4.113281 -8.058594 C 3.945312 -8.03125 3.765625 -7.972656 3.582031 -7.882812 C 3.429688 -7.816406 3.296875 -7.710938 3.1875 -7.574219 C 3.074219 -7.4375 3.019531 -7.285156 3.019531 -7.117188 C 3.019531 -6.867188 3.109375 -6.671875 3.285156 -6.527344 C 3.460938 -6.382812 3.800781 -6.25 4.304688 -6.132812 C 4.628906 -6.058594 4.941406 -5.988281 5.242188 -5.917969 C 5.546875 -5.847656 5.867188 -5.753906 6.210938 -5.632812 C 6.882812 -5.386719 7.382812 -5.0625 7.710938 -4.652344 C 8.039062 -4.242188 8.203125 -3.699219 8.203125 -3.027344 C 8.203125 -2.0625 7.824219 -1.289062 7.066406 -0.703125 C 6.308594 -0.117188 5.285156 0.175781 3.996094 0.175781 Z "/>
</g>
<g id="glyph-0-3">
</g>
<g id="glyph-0-4">
<path d="M 10.90625 0 L 8.484375 0 L 8.484375 -6.425781 L 6.71875 -2.277344 L 5.058594 -2.277344 L 3.292969 -6.425781 L 3.292969 0 L 1.003906 0 L 1.003906 -9.695312 L 3.808594 -9.695312 L 5.957031 -4.910156 L 8.097656 -9.695312 L 10.90625 -9.695312 Z "/>
</g>
<g id="glyph-0-5">
<path d="M 4.902344 -1.90625 L 4.902344 -3.429688 C 4.515625 -3.390625 4.203125 -3.359375 3.964844 -3.328125 C 3.726562 -3.300781 3.492188 -3.246094 3.261719 -3.164062 C 3.0625 -3.09375 2.90625 -2.988281 2.796875 -2.847656 C 2.683594 -2.707031 2.628906 -2.519531 2.628906 -2.285156 C 2.628906 -1.941406 2.722656 -1.707031 2.90625 -1.578125 C 3.089844 -1.449219 3.363281 -1.386719 3.722656 -1.386719 C 3.921875 -1.386719 4.128906 -1.433594 4.335938 -1.523438 C 4.542969 -1.613281 4.734375 -1.742188 4.902344 -1.90625 M 4.902344 -0.773438 C 4.746094 -0.644531 4.605469 -0.527344 4.484375 -0.421875 C 4.359375 -0.320312 4.191406 -0.214844 3.984375 -0.109375 C 3.78125 -0.0117188 3.582031 0.0664062 3.386719 0.117188 C 3.195312 0.167969 2.925781 0.195312 2.578125 0.195312 C 1.929688 0.195312 1.394531 -0.0234375 0.964844 -0.457031 C 0.539062 -0.890625 0.324219 -1.4375 0.324219 -2.097656 C 0.324219 -2.640625 0.433594 -3.078125 0.652344 -3.410156 C 0.867188 -3.746094 1.179688 -4.011719 1.589844 -4.207031 C 2 -4.40625 2.492188 -4.542969 3.066406 -4.621094 C 3.640625 -4.699219 4.253906 -4.761719 4.914062 -4.804688 L 4.914062 -4.84375 C 4.914062 -5.246094 4.765625 -5.527344 4.46875 -5.679688 C 4.171875 -5.835938 3.726562 -5.910156 3.132812 -5.910156 C 2.863281 -5.910156 2.546875 -5.863281 2.1875 -5.765625 C 1.828125 -5.667969 1.476562 -5.542969 1.132812 -5.390625 L 0.9375 -5.390625 L 0.9375 -7.15625 C 1.164062 -7.21875 1.527344 -7.296875 2.03125 -7.386719 C 2.535156 -7.476562 3.042969 -7.519531 3.554688 -7.519531 C 4.8125 -7.519531 5.730469 -7.308594 6.304688 -6.890625 C 6.878906 -6.472656 7.167969 -5.832031 7.167969 -4.972656 L 7.167969 0 L 4.902344 0 Z "/>
</g>
<g id="glyph-0-6">
<path d="M 7.722656 0 L 5.429688 0 L 5.429688 -3.625 C 5.429688 -3.921875 5.417969 -4.214844 5.394531 -4.507812 C 5.371094 -4.800781 5.324219 -5.015625 5.261719 -5.15625 C 5.183594 -5.320312 5.070312 -5.4375 4.921875 -5.511719 C 4.773438 -5.582031 4.578125 -5.617188 4.328125 -5.617188 C 4.144531 -5.617188 3.953125 -5.582031 3.761719 -5.515625 C 3.570312 -5.445312 3.367188 -5.335938 3.152344 -5.183594 L 3.152344 0 L 0.871094 0 L 0.871094 -7.3125 L 3.152344 -7.3125 L 3.152344 -6.503906 C 3.523438 -6.820312 3.886719 -7.066406 4.242188 -7.246094 C 4.59375 -7.425781 4.988281 -7.511719 5.417969 -7.511719 C 6.164062 -7.511719 6.734375 -7.277344 7.128906 -6.804688 C 7.523438 -6.335938 7.722656 -5.652344 7.722656 -4.757812 Z "/>
</g>
<g id="glyph-0-7">
<path d="M 3.152344 0 L 0.871094 0 L 0.871094 -7.3125 L 3.152344 -7.3125 L 3.152344 0 M 3.214844 -8.351562 L 0.808594 -8.351562 L 0.808594 -10.128906 L 3.214844 -10.128906 Z "/>
</g>
<g id="glyph-0-8">
<path d="M 9.609375 0 L 9.609375 -3.652344 C 9.609375 -4.011719 9.601562 -4.316406 9.589844 -4.5625 C 9.578125 -4.8125 9.539062 -5.011719 9.472656 -5.167969 C 9.40625 -5.324219 9.304688 -5.4375 9.171875 -5.511719 C 9.03125 -5.582031 8.839844 -5.617188 8.59375 -5.617188 C 8.421875 -5.617188 8.25 -5.582031 8.078125 -5.503906 C 7.910156 -5.429688 7.726562 -5.320312 7.527344 -5.183594 L 7.527344 0 L 5.234375 0 L 5.234375 -3.652344 C 5.234375 -4.007812 5.226562 -4.3125 5.210938 -4.5625 C 5.195312 -4.808594 5.15625 -5.011719 5.089844 -5.167969 C 5.027344 -5.324219 4.925781 -5.4375 4.789062 -5.511719 C 4.652344 -5.582031 4.460938 -5.617188 4.21875 -5.617188 C 4.03125 -5.617188 3.851562 -5.574219 3.671875 -5.488281 C 3.492188 -5.402344 3.320312 -5.300781 3.152344 -5.183594 L 3.152344 0 L 0.871094 0 L 0.871094 -7.3125 L 3.152344 -7.3125 L 3.152344 -6.503906 C 3.523438 -6.820312 3.875 -7.066406 4.207031 -7.246094 C 4.535156 -7.425781 4.90625 -7.511719 5.320312 -7.511719 C 5.765625 -7.511719 6.160156 -7.40625 6.496094 -7.195312 C 6.835938 -6.980469 7.09375 -6.664062 7.273438 -6.242188 C 7.710938 -6.652344 8.125 -6.964844 8.511719 -7.183594 C 8.902344 -7.402344 9.292969 -7.511719 9.695312 -7.511719 C 10.03125 -7.511719 10.335938 -7.457031 10.605469 -7.351562 C 10.875 -7.242188 11.101562 -7.078125 11.289062 -6.863281 C 11.492188 -6.628906 11.644531 -6.347656 11.746094 -6.023438 C 11.851562 -5.703125 11.902344 -5.28125 11.902344 -4.757812 L 11.902344 0 Z "/>
</g>
<g id="glyph-0-9">
<path d="M 8.464844 -6.632812 C 8.464844 -6.183594 8.390625 -5.753906 8.25 -5.34375 C 8.105469 -4.9375 7.898438 -4.597656 7.628906 -4.324219 C 7.464844 -4.152344 7.285156 -3.996094 7.085938 -3.855469 C 6.890625 -3.710938 6.671875 -3.589844 6.433594 -3.488281 C 6.195312 -3.390625 5.933594 -3.3125 5.652344 -3.253906 C 5.375 -3.199219 5.0625 -3.171875 4.714844 -3.171875 L 3.4375 -3.171875 L 3.4375 0 L 1.003906 0 L 1.003906 -9.695312 L 4.765625 -9.695312 C 5.324219 -9.695312 5.808594 -9.644531 6.214844 -9.539062 C 6.621094 -9.4375 6.988281 -9.277344 7.316406 -9.054688 C 7.683594 -8.8125 7.964844 -8.488281 8.164062 -8.082031 C 8.363281 -7.675781 8.464844 -7.195312 8.464844 -6.632812 M 5.964844 -6.574219 C 5.964844 -6.847656 5.898438 -7.085938 5.769531 -7.28125 C 5.636719 -7.480469 5.480469 -7.613281 5.300781 -7.6875 C 5.070312 -7.789062 4.847656 -7.847656 4.640625 -7.859375 C 4.429688 -7.875 4.144531 -7.882812 3.78125 -7.882812 L 3.4375 -7.882812 L 3.4375 -4.980469 L 3.605469 -4.980469 C 3.835938 -4.980469 4.054688 -4.984375 4.257812 -4.988281 C 4.460938 -4.992188 4.640625 -5.007812 4.792969 -5.03125 C 4.921875 -5.054688 5.058594 -5.097656 5.203125 -5.160156 C 5.351562 -5.222656 5.460938 -5.292969 5.539062 -5.371094 C 5.707031 -5.53125 5.816406 -5.699219 5.875 -5.871094 C 5.933594 -6.046875 5.964844 -6.28125 5.964844 -6.574219 Z "/>
</g>
<g id="glyph-0-10">
<path d="M 3.152344 0 L 0.871094 0 L 0.871094 -10.128906 L 3.152344 -10.128906 Z "/>
</g>
<g id="glyph-0-11">
<path d="M 3.671875 0.144531 C 2.742188 0.144531 2.066406 -0.046875 1.644531 -0.429688 C 1.21875 -0.8125 1.007812 -1.4375 1.007812 -2.304688 L 1.007812 -5.722656 L 0.136719 -5.722656 L 0.136719 -7.3125 L 1.007812 -7.3125 L 1.007812 -9.402344 L 3.289062 -9.402344 L 3.289062 -7.3125 L 5.480469 -7.3125 L 5.480469 -5.722656 L 3.289062 -5.722656 L 3.289062 -3.132812 C 3.289062 -2.875 3.289062 -2.652344 3.292969 -2.460938 C 3.296875 -2.269531 3.332031 -2.097656 3.398438 -1.945312 C 3.460938 -1.792969 3.566406 -1.675781 3.71875 -1.585938 C 3.875 -1.496094 4.097656 -1.453125 4.394531 -1.453125 C 4.515625 -1.453125 4.675781 -1.476562 4.875 -1.53125 C 5.070312 -1.582031 5.207031 -1.628906 5.285156 -1.671875 L 5.480469 -1.671875 L 5.480469 -0.0664062 C 5.234375 0 4.972656 0.0507812 4.695312 0.0859375 C 4.417969 0.125 4.074219 0.144531 3.671875 0.144531 Z "/>
</g>
<g id="glyph-0-12">
<path d="M 5.546875 -8.410156 L 5.371094 -8.410156 C 5.285156 -8.4375 5.148438 -8.472656 4.964844 -8.511719 C 4.78125 -8.554688 4.605469 -8.574219 4.441406 -8.574219 C 3.980469 -8.574219 3.667969 -8.488281 3.5 -8.320312 C 3.332031 -8.152344 3.25 -7.835938 3.25 -7.371094 L 3.25 -7.3125 L 5.058594 -7.3125 L 5.058594 -5.722656 L 3.328125 -5.722656 L 3.328125 0 L 1.046875 0 L 1.046875 -5.722656 L 0.136719 -5.722656 L 0.136719 -7.3125 L 1.046875 -7.3125 L 1.046875 -7.511719 C 1.046875 -8.40625 1.28125 -9.078125 1.75 -9.523438 C 2.21875 -9.972656 2.929688 -10.195312 3.878906 -10.195312 C 4.210938 -10.195312 4.519531 -10.183594 4.804688 -10.160156 C 5.089844 -10.136719 5.339844 -10.105469 5.546875 -10.066406 Z "/>
</g>
<g id="glyph-0-13">
<path d="M 7.890625 -3.652344 C 7.890625 -2.449219 7.5625 -1.503906 6.902344 -0.808594 C 6.246094 -0.117188 5.316406 0.226562 4.113281 0.226562 C 2.921875 0.226562 1.992188 -0.117188 1.332031 -0.808594 C 0.667969 -1.503906 0.339844 -2.449219 0.339844 -3.652344 C 0.339844 -4.867188 0.667969 -5.820312 1.332031 -6.507812 C 1.992188 -7.195312 2.921875 -7.539062 4.113281 -7.539062 C 5.3125 -7.539062 6.242188 -7.191406 6.902344 -6.5 C 7.5625 -5.808594 7.890625 -4.859375 7.890625 -3.652344 M 5.554688 -3.640625 C 5.554688 -4.074219 5.515625 -4.433594 5.445312 -4.722656 C 5.375 -5.011719 5.277344 -5.242188 5.148438 -5.417969 C 5.015625 -5.597656 4.863281 -5.726562 4.695312 -5.796875 C 4.523438 -5.867188 4.332031 -5.90625 4.113281 -5.90625 C 3.910156 -5.90625 3.726562 -5.875 3.5625 -5.808594 C 3.394531 -5.746094 3.246094 -5.628906 3.105469 -5.449219 C 2.976562 -5.28125 2.871094 -5.046875 2.792969 -4.753906 C 2.714844 -4.457031 2.675781 -4.085938 2.675781 -3.640625 C 2.675781 -3.191406 2.710938 -2.832031 2.785156 -2.554688 C 2.859375 -2.28125 2.957031 -2.058594 3.074219 -1.894531 C 3.195312 -1.726562 3.347656 -1.601562 3.527344 -1.523438 C 3.710938 -1.445312 3.914062 -1.40625 4.132812 -1.40625 C 4.316406 -1.40625 4.5 -1.445312 4.691406 -1.523438 C 4.878906 -1.601562 5.03125 -1.71875 5.144531 -1.875 C 5.277344 -2.0625 5.378906 -2.285156 5.449219 -2.546875 C 5.519531 -2.8125 5.554688 -3.175781 5.554688 -3.640625 Z "/>
</g>
<g id="glyph-0-14">
<path d="M 5.78125 -5.15625 L 5.59375 -5.15625 C 5.503906 -5.1875 5.378906 -5.210938 5.214844 -5.222656 C 5.050781 -5.238281 4.867188 -5.246094 4.667969 -5.246094 C 4.429688 -5.246094 4.179688 -5.210938 3.914062 -5.144531 C 3.652344 -5.074219 3.398438 -4.992188 3.152344 -4.894531 L 3.152344 0 L 0.871094 0 L 0.871094 -7.3125 L 3.152344 -7.3125 L 3.152344 -6.261719 C 3.253906 -6.359375 3.398438 -6.480469 3.582031 -6.625 C 3.769531 -6.769531 3.9375 -6.886719 4.089844 -6.972656 C 4.253906 -7.074219 4.445312 -7.15625 4.664062 -7.230469 C 4.882812 -7.300781 5.089844 -7.335938 5.285156 -7.335938 C 5.359375 -7.335938 5.441406 -7.335938 5.535156 -7.332031 C 5.625 -7.328125 5.707031 -7.320312 5.78125 -7.3125 Z "/>
</g>
</g>
</defs>
<g fill="rgb(53.333333%, 75.294118%, 81.568627%)" fill-opacity="1">
<use xlink:href="#glyph-0-0" x="30" y="33.339844"/>
<use xlink:href="#glyph-0-1" x="39" y="33.339844"/>
<use xlink:href="#glyph-0-2" x="49" y="33.339844"/>
<use xlink:href="#glyph-0-3" x="57" y="33.339844"/>
<use xlink:href="#glyph-0-4" x="61" y="33.339844"/>
<use xlink:href="#glyph-0-5" x="73" y="33.339844"/>
<use xlink:href="#glyph-0-6" x="81" y="33.339844"/>
<use xlink:href="#glyph-0-7" x="90" y="33.339844"/>
<use xlink:href="#glyph-0-8" x="94" y="33.339844"/>
<use xlink:href="#glyph-0-3" x="107" y="33.339844"/>
<use xlink:href="#glyph-0-9" x="111" y="33.339844"/>
<use xlink:href="#glyph-0-10" x="120" y="33.339844"/>
<use xlink:href="#glyph-0-5" x="124" y="33.339844"/>
<use xlink:href="#glyph-0-11" x="132" y="33.339844"/>
<use xlink:href="#glyph-0-12" x="138" y="33.339844"/>
<use xlink:href="#glyph-0-13" x="143" y="33.339844"/>
<use xlink:href="#glyph-0-14" x="151" y="33.339844"/>
<use xlink:href="#glyph-0-8" x="157" y="33.339844"/>
</g>
</svg>
