<?xml version="1.0" encoding="UTF-8"?>
<svg xmlns="http://www.w3.org/2000/svg" xmlns:xlink="http://www.w3.org/1999/xlink" width="1920" height="1080" viewBox="0 0 1920 1080">
<defs>
<g>
<g id="glyph-0-0">
<path d="M 4.699219 -1.601562 L 4.582031 0 L 0.371094 0 L 0.371094 -0.269531 C 0.433594 -0.273438 0.519531 -0.285156 0.636719 -0.296875 C 0.75 -0.308594 0.832031 -0.324219 0.878906 -0.34375 C 0.953125 -0.378906 1.007812 -0.425781 1.042969 -0.488281 C 1.078125 -0.554688 1.09375 -0.632812 1.09375 -0.734375 L 1.09375 -4.589844 C 1.09375 -4.675781 1.078125 -4.753906 1.050781 -4.820312 C 1.019531 -4.886719 0.964844 -4.9375 0.878906 -4.980469 C 0.820312 -5.007812 0.738281 -5.039062 0.632812 -5.066406 C 0.527344 -5.097656 0.441406 -5.113281 0.371094 -5.117188 L 0.371094 -5.390625 L 2.648438 -5.390625 L 2.648438 -5.117188 C 2.574219 -5.117188 2.484375 -5.105469 2.371094 -5.082031 C 2.257812 -5.058594 2.175781 -5.039062 2.125 -5.019531 C 2.039062 -4.988281 1.980469 -4.9375 1.949219 -4.863281 C 1.917969 -4.792969 1.902344 -4.710938 1.902344 -4.628906 L 1.902344 -1.011719 C 1.902344 -0.84375 1.910156 -0.714844 1.925781 -0.621094 C 1.945312 -0.527344 1.980469 -0.457031 2.042969 -0.40625 C 2.101562 -0.359375 2.1875 -0.332031 2.304688 -0.316406 C 2.417969 -0.304688 2.578125 -0.296875 2.789062 -0.296875 C 2.882812 -0.296875 2.980469 -0.296875 3.078125 -0.304688 C 3.179688 -0.308594 3.277344 -0.320312 3.367188 -0.335938 C 3.457031 -0.347656 3.539062 -0.371094 3.613281 -0.398438 C 3.6875 -0.421875 3.742188 -0.457031 3.777344 -0.496094 C 3.882812 -0.613281 4.003906 -0.789062 4.140625 -1.027344 C 4.277344 -1.265625 4.375 -1.457031 4.429688 -1.601562 Z "/>
</g>
</g>
</defs>
<g fill="rgb(100%, 100%, 100%)" fill-opacity="1">
<use xlink:href="#glyph-0-0" x="30" y="27.131836"/>
</g>
</svg>
