<?xml version="1.0" encoding="UTF-8"?>
<svg xmlns="http://www.w3.org/2000/svg" xmlns:xlink="http://www.w3.org/1999/xlink" width="1920" height="1080" viewBox="0 0 1920 1080">
<defs>
<g>
<g id="glyph-0-0">
<path d="M 5.015625 -5.484375 L 4.234375 -5.59375 L 4.234375 -5.828125 L 6.21875 -5.828125 L 6.21875 -5.59375 L 5.46875 -5.484375 L 5.46875 0 L 5.046875 0 L 1.453125 -5.234375 L 1.453125 -0.34375 L 2.234375 -0.234375 L 2.234375 0 L 0.25 0 L 0.25 -0.234375 L 1 -0.34375 L 1 -5.484375 L 0.25 -5.59375 L 0.25 -5.828125 L 2.015625 -5.828125 L 5.015625 -1.515625 Z "/>
</g>
<g id="glyph-0-1">
<path d="M 4.109375 -2.0625 C 4.109375 -0.625 3.472656 0.09375 2.203125 0.09375 C 1.585938 0.09375 1.125 -0.0859375 0.8125 -0.453125 C 0.5 -0.828125 0.34375 -1.363281 0.34375 -2.0625 C 0.34375 -2.75 0.5 -3.273438 0.8125 -3.640625 C 1.125 -4.003906 1.597656 -4.1875 2.234375 -4.1875 C 2.847656 -4.1875 3.3125 -4.003906 3.625 -3.640625 C 3.945312 -3.285156 4.109375 -2.757812 4.109375 -2.0625 Z M 3.328125 -2.0625 C 3.328125 -2.6875 3.234375 -3.140625 3.046875 -3.421875 C 2.867188 -3.703125 2.585938 -3.84375 2.203125 -3.84375 C 1.816406 -3.84375 1.539062 -3.707031 1.375 -3.4375 C 1.207031 -3.164062 1.125 -2.707031 1.125 -2.0625 C 1.125 -1.40625 1.207031 -0.9375 1.375 -0.65625 C 1.550781 -0.382812 1.828125 -0.25 2.203125 -0.25 C 2.578125 -0.25 2.859375 -0.390625 3.046875 -0.671875 C 3.234375 -0.960938 3.328125 -1.425781 3.328125 -2.0625 Z "/>
</g>
<g id="glyph-0-2">
<path d="M 2.875 -4.1875 L 2.875 -3.09375 L 2.703125 -3.09375 L 2.4375 -3.5625 C 2.300781 -3.5625 2.128906 -3.539062 1.921875 -3.5 C 1.722656 -3.46875 1.554688 -3.414062 1.421875 -3.34375 L 1.421875 -0.296875 L 2.109375 -0.203125 L 2.109375 0 L 0.171875 0 L 0.171875 -0.203125 L 0.6875 -0.296875 L 0.6875 -3.78125 L 0.171875 -3.890625 L 0.171875 -4.078125 L 1.375 -4.078125 L 1.40625 -3.578125 C 1.582031 -3.722656 1.816406 -3.859375 2.109375 -3.984375 C 2.410156 -4.117188 2.644531 -4.1875 2.8125 -4.1875 Z "/>
</g>
<g id="glyph-0-3">
<path d="M 1.421875 -3.75 C 1.628906 -3.875 1.851562 -3.976562 2.09375 -4.0625 C 2.34375 -4.144531 2.5625 -4.1875 2.75 -4.1875 C 2.945312 -4.1875 3.128906 -4.148438 3.296875 -4.078125 C 3.472656 -4.003906 3.601562 -3.882812 3.6875 -3.71875 C 3.90625 -3.84375 4.164062 -3.953125 4.46875 -4.046875 C 4.769531 -4.140625 5.015625 -4.1875 5.203125 -4.1875 C 5.898438 -4.1875 6.25 -3.785156 6.25 -2.984375 L 6.25 -0.296875 L 6.78125 -0.203125 L 6.78125 0 L 4.921875 0 L 4.921875 -0.203125 L 5.53125 -0.296875 L 5.53125 -2.90625 C 5.53125 -3.40625 5.300781 -3.65625 4.84375 -3.65625 C 4.757812 -3.65625 4.664062 -3.648438 4.5625 -3.640625 C 4.46875 -3.628906 4.367188 -3.613281 4.265625 -3.59375 C 4.171875 -3.582031 4.078125 -3.566406 3.984375 -3.546875 C 3.890625 -3.523438 3.816406 -3.507812 3.765625 -3.5 C 3.804688 -3.34375 3.828125 -3.171875 3.828125 -2.984375 L 3.828125 -0.296875 L 4.453125 -0.203125 L 4.453125 0 L 2.515625 0 L 2.515625 -0.203125 L 3.109375 -0.296875 L 3.109375 -2.90625 C 3.109375 -3.144531 3.046875 -3.328125 2.921875 -3.453125 C 2.804688 -3.585938 2.625 -3.65625 2.375 -3.65625 C 2.125 -3.65625 1.804688 -3.613281 1.421875 -3.53125 L 1.421875 -0.296875 L 2.03125 -0.203125 L 2.03125 0 L 0.1875 0 L 0.1875 -0.203125 L 0.703125 -0.296875 L 0.703125 -3.78125 L 0.1875 -3.890625 L 0.1875 -4.078125 L 1.375 -4.078125 Z "/>
</g>
<g id="glyph-0-4">
<path d="M 2.015625 -4.171875 C 2.460938 -4.171875 2.789062 -4.078125 3 -3.890625 C 3.207031 -3.710938 3.3125 -3.4375 3.3125 -3.0625 L 3.3125 -0.296875 L 3.828125 -0.203125 L 3.828125 0 L 2.703125 0 L 2.625 -0.40625 C 2.289062 -0.0703125 1.867188 0.09375 1.359375 0.09375 C 0.660156 0.09375 0.3125 -0.3125 0.3125 -1.125 C 0.3125 -1.394531 0.363281 -1.617188 0.46875 -1.796875 C 0.570312 -1.984375 0.738281 -2.125 0.96875 -2.21875 C 1.207031 -2.3125 1.546875 -2.359375 1.984375 -2.359375 L 2.59375 -2.390625 L 2.59375 -3.015625 C 2.59375 -3.296875 2.539062 -3.503906 2.4375 -3.640625 C 2.332031 -3.773438 2.175781 -3.84375 1.96875 -3.84375 C 1.675781 -3.84375 1.410156 -3.773438 1.171875 -3.640625 L 1.03125 -3.125 L 0.78125 -3.125 L 0.78125 -4.015625 C 1.25 -4.117188 1.660156 -4.171875 2.015625 -4.171875 Z M 2.59375 -2.078125 L 2.03125 -2.0625 C 1.644531 -2.050781 1.378906 -1.972656 1.234375 -1.828125 C 1.097656 -1.691406 1.03125 -1.46875 1.03125 -1.15625 C 1.03125 -0.644531 1.238281 -0.390625 1.65625 -0.390625 C 1.851562 -0.390625 2.019531 -0.410156 2.15625 -0.453125 C 2.300781 -0.503906 2.445312 -0.5625 2.59375 -0.625 Z "/>
</g>
<g id="glyph-0-5">
<path d="M 1.59375 -0.296875 L 2.296875 -0.203125 L 2.296875 0 L 0.171875 0 L 0.171875 -0.203125 L 0.875 -0.296875 L 0.875 -5.875 L 0.171875 -5.96875 L 0.171875 -6.171875 L 1.59375 -6.171875 Z "/>
</g>
<g id="glyph-0-6">
<path d="M 1.640625 -5.40625 C 1.640625 -5.28125 1.59375 -5.171875 1.5 -5.078125 C 1.414062 -4.984375 1.304688 -4.9375 1.171875 -4.9375 C 1.046875 -4.9375 0.9375 -4.984375 0.84375 -5.078125 C 0.75 -5.171875 0.703125 -5.28125 0.703125 -5.40625 C 0.703125 -5.539062 0.75 -5.65625 0.84375 -5.75 C 0.9375 -5.84375 1.046875 -5.890625 1.171875 -5.890625 C 1.304688 -5.890625 1.414062 -5.84375 1.5 -5.75 C 1.59375 -5.65625 1.640625 -5.539062 1.640625 -5.40625 Z M 1.609375 -0.296875 L 2.296875 -0.203125 L 2.296875 0 L 0.1875 0 L 0.1875 -0.203125 L 0.875 -0.296875 L 0.875 -3.78125 L 0.296875 -3.890625 L 0.296875 -4.078125 L 1.609375 -4.078125 Z "/>
</g>
<g id="glyph-0-7">
<path d="M 0.234375 0 L 0.234375 -0.203125 L 2.484375 -3.734375 L 1.515625 -3.734375 C 1.359375 -3.734375 1.203125 -3.71875 1.046875 -3.6875 C 0.898438 -3.664062 0.796875 -3.628906 0.734375 -3.578125 L 0.609375 -3 L 0.40625 -3 L 0.40625 -4.078125 L 3.40625 -4.078125 L 3.40625 -3.875 L 1.171875 -0.34375 L 2.359375 -0.34375 C 2.523438 -0.34375 2.695312 -0.363281 2.875 -0.40625 C 3.0625 -0.445312 3.191406 -0.492188 3.265625 -0.546875 L 3.5 -1.40625 L 3.703125 -1.40625 L 3.59375 0 Z "/>
</g>
<g id="glyph-0-8">
<path d="M 1.125 -2.046875 L 1.125 -1.96875 C 1.125 -1.570312 1.164062 -1.265625 1.25 -1.046875 C 1.34375 -0.828125 1.476562 -0.65625 1.65625 -0.53125 C 1.84375 -0.414062 2.085938 -0.359375 2.390625 -0.359375 C 2.546875 -0.359375 2.726562 -0.367188 2.9375 -0.390625 C 3.15625 -0.421875 3.335938 -0.453125 3.484375 -0.484375 L 3.484375 -0.25 C 3.335938 -0.15625 3.144531 -0.0703125 2.90625 0 C 2.664062 0.0625 2.421875 0.09375 2.171875 0.09375 C 1.546875 0.09375 1.082031 -0.078125 0.78125 -0.421875 C 0.488281 -0.765625 0.34375 -1.316406 0.34375 -2.078125 C 0.34375 -2.785156 0.488281 -3.3125 0.78125 -3.65625 C 1.082031 -4.007812 1.515625 -4.1875 2.078125 -4.1875 C 3.117188 -4.1875 3.640625 -3.59375 3.640625 -2.40625 L 3.640625 -2.046875 Z M 2.078125 -3.84375 C 1.773438 -3.84375 1.539062 -3.71875 1.375 -3.46875 C 1.21875 -3.226562 1.140625 -2.875 1.140625 -2.40625 L 2.875 -2.40625 C 2.875 -2.914062 2.804688 -3.28125 2.671875 -3.5 C 2.546875 -3.726562 2.347656 -3.84375 2.078125 -3.84375 Z "/>
</g>
<g id="glyph-0-9">
</g>
<g id="glyph-0-10">
<path d="M 0.984375 -3.71875 L 0.28125 -3.71875 L 0.28125 -3.921875 L 0.984375 -4.09375 L 0.984375 -4.390625 C 0.984375 -4.984375 1.097656 -5.441406 1.328125 -5.765625 C 1.566406 -6.097656 1.90625 -6.265625 2.34375 -6.265625 C 2.5625 -6.265625 2.765625 -6.234375 2.953125 -6.171875 L 2.953125 -5.28125 L 2.75 -5.28125 L 2.546875 -5.828125 C 2.453125 -5.878906 2.335938 -5.90625 2.203125 -5.90625 C 2.015625 -5.90625 1.882812 -5.820312 1.8125 -5.65625 C 1.738281 -5.5 1.703125 -5.203125 1.703125 -4.765625 L 1.703125 -4.078125 L 2.78125 -4.078125 L 2.78125 -3.71875 L 1.703125 -3.71875 L 1.703125 -0.34375 L 2.578125 -0.203125 L 2.578125 0 L 0.375 0 L 0.375 -0.203125 L 0.984375 -0.34375 Z "/>
</g>
<g id="glyph-0-11">
<path d="M 1.453125 0.09375 C 1.171875 0.09375 0.960938 0.0078125 0.828125 -0.15625 C 0.691406 -0.320312 0.625 -0.554688 0.625 -0.859375 L 0.625 -3.71875 L 0.09375 -3.71875 L 0.09375 -3.90625 L 0.625 -4.078125 L 1.0625 -5 L 1.34375 -5 L 1.34375 -4.078125 L 2.28125 -4.078125 L 2.28125 -3.71875 L 1.34375 -3.71875 L 1.34375 -0.9375 C 1.34375 -0.75 1.382812 -0.601562 1.46875 -0.5 C 1.550781 -0.40625 1.664062 -0.359375 1.8125 -0.359375 C 1.976562 -0.359375 2.179688 -0.382812 2.421875 -0.4375 L 2.421875 -0.15625 C 2.316406 -0.0820312 2.164062 -0.0234375 1.96875 0.015625 C 1.78125 0.0664062 1.609375 0.09375 1.453125 0.09375 Z "/>
</g>
<g id="glyph-0-12">
<path d="M 3.140625 -1.140625 C 3.140625 -0.734375 3.007812 -0.425781 2.75 -0.21875 C 2.5 -0.0078125 2.125 0.09375 1.625 0.09375 C 1.414062 0.09375 1.1875 0.0664062 0.9375 0.015625 C 0.695312 -0.0234375 0.507812 -0.0703125 0.375 -0.125 L 0.375 -1.125 L 0.5625 -1.125 L 0.78125 -0.546875 C 1 -0.347656 1.28125 -0.25 1.625 -0.25 C 2.1875 -0.25 2.46875 -0.492188 2.46875 -0.984375 C 2.46875 -1.328125 2.25 -1.578125 1.8125 -1.734375 L 1.421875 -1.859375 C 1.128906 -1.953125 0.914062 -2.046875 0.78125 -2.140625 C 0.644531 -2.242188 0.539062 -2.363281 0.46875 -2.5 C 0.394531 -2.644531 0.359375 -2.820312 0.359375 -3.03125 C 0.359375 -3.382812 0.476562 -3.664062 0.71875 -3.875 C 0.96875 -4.082031 1.300781 -4.1875 1.71875 -4.1875 C 2.019531 -4.1875 2.394531 -4.140625 2.84375 -4.046875 L 2.84375 -3.171875 L 2.640625 -3.171875 L 2.453125 -3.640625 C 2.304688 -3.773438 2.066406 -3.84375 1.734375 -3.84375 C 1.492188 -3.84375 1.3125 -3.785156 1.1875 -3.671875 C 1.070312 -3.554688 1.015625 -3.398438 1.015625 -3.203125 C 1.015625 -3.035156 1.066406 -2.894531 1.171875 -2.78125 C 1.285156 -2.664062 1.457031 -2.570312 1.6875 -2.5 C 2.113281 -2.351562 2.390625 -2.242188 2.515625 -2.171875 C 2.648438 -2.109375 2.757812 -2.03125 2.84375 -1.9375 C 2.9375 -1.84375 3.007812 -1.734375 3.0625 -1.609375 C 3.113281 -1.484375 3.140625 -1.328125 3.140625 -1.140625 Z "/>
</g>
</g>
</defs>
<g fill="rgb(100%, 100%, 100%)" fill-opacity="1">
<use xlink:href="#glyph-0-0" x="30" y="27.921875"/>
<use xlink:href="#glyph-0-1" x="36" y="27.921875"/>
<use xlink:href="#glyph-0-2" x="40" y="27.921875"/>
<use xlink:href="#glyph-0-3" x="43" y="27.921875"/>
<use xlink:href="#glyph-0-4" x="50" y="27.921875"/>
<use xlink:href="#glyph-0-5" x="54" y="27.921875"/>
<use xlink:href="#glyph-0-6" x="56" y="27.921875"/>
<use xlink:href="#glyph-0-7" x="58" y="27.921875"/>
<use xlink:href="#glyph-0-8" x="62" y="27.921875"/>
<use xlink:href="#glyph-0-9" x="66" y="27.921875"/>
<use xlink:href="#glyph-0-10" x="68" y="27.921875"/>
<use xlink:href="#glyph-0-1" x="71" y="27.921875"/>
<use xlink:href="#glyph-0-2" x="75" y="27.921875"/>
<use xlink:href="#glyph-0-3" x="78" y="27.921875"/>
<use xlink:href="#glyph-0-4" x="85" y="27.921875"/>
<use xlink:href="#glyph-0-11" x="89" y="27.921875"/>
<use xlink:href="#glyph-0-12" x="91" y="27.921875"/>
</g>
</svg>
